<svg width="74" height="26" viewBox="0 0 74 26" fill="none" xmlns="http://www.w3.org/2000/svg">
<path d="M73.4002 25.7176C49.0692 25.7176 24.9956 25.7176 0.664551 25.7176C0.793286 17.938 4.78409 12.5374 10.4485 8.16537C25.5749 -3.47183 51.9013 -2.44313 66.0623 10.2871C70.6967 14.4019 73.1427 19.4168 73.4002 25.7176ZM26.5404 15.8163C26.0255 15.302 25.5105 14.7233 24.9956 14.209C23.7082 15.4306 22.4209 16.7165 21.1979 17.938C21.7128 18.4524 22.5496 19.3525 22.614 19.3525C23.9013 18.2595 25.1887 17.0379 26.5404 15.8163ZM16.2416 15.9449C15.791 15.3663 15.276 14.7876 14.8255 14.209C13.4737 15.3663 12.122 16.5236 10.8347 17.8095C10.7703 17.8738 11.9933 19.2882 12.0577 19.2882C13.4737 18.2595 14.8255 17.1022 16.2416 15.9449ZM22.7427 8.22966C22.2278 7.71531 21.7128 7.26525 21.2623 6.7509C20.0393 7.90819 18.7519 9.06548 17.5933 10.3514C17.5289 10.4157 18.5588 11.4444 19.0094 12.023C20.2967 10.7371 21.5197 9.45125 22.7427 8.22966Z" fill="#FFD600"/>
</svg>
