<svg width="84" height="14" viewBox="0 0 84 14" fill="none" xmlns="http://www.w3.org/2000/svg">
<path d="M41.7105 13.5625C29.9956 13.5625 18.345 13.5625 6.63008 13.5625C4.18411 13.5625 1.8025 13.4339 0.772613 10.6693C-0.32164 7.77608 -0.514743 4.75427 1.41629 2.11822C1.93123 1.41098 2.96112 0.57516 3.73353 0.57516C12.5519 0.57516 21.6278 -1.28936 29.9312 3.14692C33.4071 5.01144 36.6899 7.26173 39.9082 9.57631C41.6462 10.8622 42.6117 10.7979 44.2209 9.44772C46.6025 7.45461 49.2416 5.84726 51.8807 4.17562C56.5795 1.28239 61.6646 0.0608077 67.2002 0.317983C70.9335 0.510865 74.7312 0.317984 78.4646 0.446572C82.4554 0.57516 84.0002 2.43968 84.0002 7.00455C84.0002 11.5051 82.3266 13.4982 78.4002 13.5625C66.1703 13.5625 53.9404 13.5625 41.7105 13.5625Z" fill="#FFD600"/>
</svg>
